<?xml version="1.0" encoding="utf-8"?>
<!-- Generator: Adobe Illustrator 16.0.0, SVG Export Plug-In . SVG Version: 6.00 Build 0)  -->
<!DOCTYPE svg PUBLIC "-//W3C//DTD SVG 1.1//EN" "http://www.w3.org/Graphics/SVG/1.1/DTD/svg11.dtd">
<svg version="1.1" id="Layer_1" xmlns="http://www.w3.org/2000/svg" xmlns:xlink="http://www.w3.org/1999/xlink" x="0px" y="0px"
	 width="200px" height="200px" viewBox="0 0 200 200" enable-background="new 0 0 200 200" xml:space="preserve">
<g>
	<circle fill="#13AFBE" cx="100.457" cy="100.124" r="99.545"/>
	<path opacity="0.4" fill="#FCFCFC" d="M19.326,157.192c18.001,25.683,47.82,42.479,81.562,42.479
		c33.747,0,63.566-16.796,81.568-42.479H19.326z"/>
</g>
<g>
	<path fill="#175079" d="M151.79,31.234H48.733c-2.688,0-4.867,2.179-4.867,4.867v84.09h112.792v-84.09
		C156.657,33.413,154.479,31.234,151.79,31.234z"/>
	<path fill="#FFFFFF" d="M47.962,116.096V36.102c0-0.426,0.346-0.772,0.77-0.772H151.79c0.425,0,0.771,0.346,0.771,0.772v79.994
		H47.962z"/>
	<g>
		<path fill="#AD1400" d="M62.615,76.347l18.371-10.476v4.979l-12.875,7.469v0.094l12.875,7.469v4.979L62.615,80.386V76.347z"/>
		<path fill="#AD1400" d="M84.458,92.741L94.51,58.684h4.744L89.201,92.741H84.458z"/>
	</g>
	<g>
		<g>
			<path d="M144.206,86.567h-19.56V71.824c0-5.392,4.388-9.779,9.78-9.779s9.779,4.387,9.779,9.779V86.567z M128.357,82.855h12.138
				V71.824c0-3.346-2.723-6.068-6.068-6.068c-3.347,0-6.069,2.722-6.069,6.068V82.855z"/>
		</g>
		<rect x="122.283" y="74.734" fill="#13AFBE" width="24.286" height="19.954"/>
		<path d="M133.606,81.625c-1.023,0.267-1.857,1.106-2.121,2.13c-0.438,1.705,0.562,3.237,2.036,3.699v2.736
			c0,0.5,0.404,0.904,0.904,0.904s0.905-0.404,0.905-0.904v-2.736c1.236-0.388,2.14-1.528,2.14-2.893
			C137.471,82.614,135.641,81.093,133.606,81.625z"/>
	</g>
	<polygon fill="#103754" points="170.193,153.984 26.232,153.984 43.866,120.191 152.561,120.191 	"/>
	<polygon points="156.254,137.279 40.172,137.279 46.644,123.76 149.782,123.76 	"/>
	<polygon points="111.41,149.635 85.016,149.635 85.938,140.289 110.487,140.289 	"/>
	<rect x="26.232" y="153.984" width="143.961" height="4.697"/>
	<g>
		<path fill="#DE3F18" d="M144.097,112.561l13.854,28.387c1.377,2.82,4.779,3.992,7.6,2.615c2.822-1.377,3.992-4.779,2.616-7.602
			l-13.854-28.385L144.097,112.561z"/>
		<path fill="#C63214" d="M137.135,108.492l2.492,5.109c0.836,1.711,2.9,2.42,4.611,1.586l12.058-5.885
			c1.711-0.836,2.421-2.898,1.586-4.609l-2.493-5.109L137.135,108.492z"/>
		<path fill="#103754" d="M120.819,51.903c-15.387,7.509-21.773,26.07-14.264,41.457c7.509,15.388,26.07,21.775,41.457,14.265
			c15.387-7.509,21.772-26.07,14.263-41.458C154.766,50.781,136.204,44.395,120.819,51.903z M144.489,100.406
			c-11.4,5.563-25.151,0.833-30.715-10.568c-5.564-11.4-0.833-25.151,10.567-30.715c11.399-5.563,25.15-0.832,30.714,10.568
			C160.62,81.09,155.889,94.842,144.489,100.406z"/>
	</g>
</g>
</svg>
